<svg width="40" height="40" viewBox="0 0 40 40" fill="none" xmlns="http://www.w3.org/2000/svg">
<path d="M36.2157 9.94454C34.9656 10.4985 33.6227 10.8727 32.211 11.0419C33.6677 10.1703 34.7575 8.79847 35.277 7.1824C33.9085 7.99531 32.4106 8.56751 30.8486 8.87412C29.7982 7.75259 28.407 7.00923 26.8908 6.75943C25.3746 6.50964 23.8184 6.7674 22.4637 7.49268C21.1091 8.21797 20.0318 9.3702 19.3991 10.7705C18.7664 12.1708 18.6137 13.7408 18.9647 15.2368C16.1916 15.0975 13.4788 14.3768 11.0023 13.1212C8.52576 11.8657 6.34093 10.1035 4.58956 7.94892C3.99073 8.98191 3.64639 10.1796 3.64639 11.4551C3.64573 12.6034 3.9285 13.7341 4.46962 14.7468C5.01073 15.7596 5.79347 16.6231 6.74838 17.2609C5.64094 17.2256 4.55794 16.9264 3.5895 16.388V16.4779C3.58939 18.0884 4.14647 19.6493 5.16622 20.8958C6.18597 22.1423 7.60557 22.9976 9.18415 23.3166C8.15682 23.5946 7.07974 23.6356 6.03426 23.4364C6.47964 24.8221 7.34721 26.0339 8.5155 26.902C9.68379 27.7702 11.0943 28.2513 12.5496 28.278C10.0792 30.2173 7.02816 31.2693 3.88743 31.2647C3.33108 31.2648 2.7752 31.2323 2.22266 31.1674C5.41069 33.2172 9.12178 34.305 12.9119 34.3008C25.742 34.3008 32.7559 23.6744 32.7559 14.4583C32.7559 14.1589 32.7484 13.8565 32.735 13.557C34.0993 12.5704 35.2769 11.3487 36.2127 9.94904L36.2157 9.94454Z" fill="#171717"/>
</svg>
