<svg width="33" height="33" viewBox="0 0 33 33" fill="none" xmlns="http://www.w3.org/2000/svg">
<g clip-path="url(#clip0_203_3052)">
<path d="M32.9952 33V32.9986H33.0034V20.8958C33.0034 14.9751 31.7288 10.4142 24.807 10.4142C21.4795 10.4142 19.2465 12.2402 18.3349 13.9713H18.2387V10.9669H11.6758V32.9986H18.5095V22.0893C18.5095 19.2169 19.054 16.4394 22.6112 16.4394C26.116 16.4394 26.1683 19.7174 26.1683 22.2736V33H32.9952Z" fill="#171717"/>
<path d="M0.546875 10.9684H7.38888V33H0.546875V10.9684Z" fill="#171717"/>
<path d="M3.96275 0C1.77513 0 0 1.77513 0 3.96275C0 6.15038 1.77513 7.96263 3.96275 7.96263C6.15037 7.96263 7.9255 6.15038 7.9255 3.96275C7.92412 1.77513 6.149 0 3.96275 0V0Z" fill="#171717"/>
</g>
<defs>
<clipPath id="clip0_203_3052">
<rect width="33" height="33" fill="white"/>
</clipPath>
</defs>
</svg>
