<svg width="22" height="22" viewBox="0 0 22 22" fill="none" xmlns="http://www.w3.org/2000/svg">
<path d="M19.9188 5.46948C19.2313 5.77414 18.4927 5.97999 17.7162 6.07304C18.5174 5.59364 19.1168 4.83914 19.4026 3.9503C18.6498 4.3974 17.826 4.71211 16.9669 4.88075C16.3892 4.26391 15.624 3.85506 14.7901 3.71767C13.9562 3.58028 13.1003 3.72205 12.3553 4.12096C11.6102 4.51986 11.0177 5.15359 10.6697 5.92376C10.3217 6.69392 10.2377 7.55742 10.4308 8.38021C8.90557 8.30363 7.41351 7.90721 6.05144 7.21666C4.68936 6.52612 3.48771 5.55689 2.52446 4.37189C2.19509 4.94003 2.00571 5.59876 2.00571 6.30029C2.00534 6.93184 2.16087 7.55371 2.45848 8.11074C2.7561 8.66776 3.1866 9.14271 3.7118 9.49345C3.10271 9.47407 2.50706 9.30949 1.97442 9.01341V9.06281C1.97436 9.94858 2.28076 10.8071 2.84162 11.4927C3.40248 12.1782 4.18326 12.6487 5.05148 12.8241C4.48645 12.977 3.89405 12.9996 3.31904 12.89C3.564 13.6521 4.04116 14.3186 4.68372 14.7961C5.32628 15.2736 6.10207 15.5382 6.90249 15.5529C5.54374 16.6195 3.86569 17.1981 2.13828 17.1956C1.83229 17.1956 1.52655 17.1778 1.22266 17.142C2.97607 18.2694 5.01718 18.8677 7.10175 18.8654C14.1583 18.8654 18.016 13.0209 18.016 7.95204C18.016 7.78736 18.0118 7.62103 18.0044 7.45635C18.7548 6.91371 19.4025 6.24175 19.9172 5.47195L19.9188 5.46948V5.46948Z" fill="#171717"/>
</svg>
