<svg width="24" height="24" viewBox="0 0 24 24" fill="none" xmlns="http://www.w3.org/2000/svg">
<g clip-path="url(#clip0_127_3490)">
<path d="M0.339941 2.00243C-0.110059 1.55243 -0.110059 0.803478 0.339941 0.337744C0.805676 -0.112256 1.53889 -0.112256 2.00463 0.337744L11.9938 10.3437L21.9997 0.337744C22.4497 -0.112256 23.1987 -0.112256 23.6476 0.337744C24.1134 0.803478 24.1134 1.55348 23.6476 2.00243L13.6585 11.9926L23.6476 21.9986C24.1134 22.4486 24.1134 23.1975 23.6476 23.6633C23.1976 24.1133 22.4487 24.1133 21.9997 23.6633L11.9938 13.6573L2.00463 23.6633C1.53889 24.1133 0.805676 24.1133 0.339941 23.6633C-0.110059 23.1975 -0.110059 22.4475 0.339941 21.9986L10.3291 11.9926L0.339941 2.00243Z" fill="#C4214A"/>
</g>
<defs>
<clipPath id="clip0_127_3490">
<rect width="24" height="24" fill="white"/>
</clipPath>
</defs>
</svg>
