<svg width="28" height="28" viewBox="0 0 28 28" fill="none" xmlns="http://www.w3.org/2000/svg">
<path d="M26.8333 15.1424H1.16667C0.522664 15.1424 0 14.6198 0 13.9757C0 13.3317 0.522664 12.8091 1.16667 12.8091H26.8333C27.4773 12.8091 28 13.3317 28 13.9757C28 14.6198 27.4773 15.1424 26.8333 15.1424Z" fill="#C4214A"/>
<path d="M26.8333 6.19784H1.16667C0.522664 6.19784 0 5.67517 0 5.03117C0 4.38717 0.522664 3.8645 1.16667 3.8645H26.8333C27.4773 3.8645 28 4.38717 28 5.03117C28 5.67517 27.4773 6.19784 26.8333 6.19784Z" fill="#C4214A"/>
<path d="M26.8333 24.0868H1.16667C0.522664 24.0868 0 23.5641 0 22.9201C0 22.2761 0.522664 21.7534 1.16667 21.7534H26.8333C27.4773 21.7534 28 22.2761 28 22.9201C28 23.5641 27.4773 24.0868 26.8333 24.0868Z" fill="#C4214A"/>
</svg>
