<svg width="16" height="16" viewBox="0 0 16 16" fill="none" xmlns="http://www.w3.org/2000/svg">
<g clip-path="url(#clip0_207_573)">
<path d="M9.33716 9.80292C8.93909 10.0683 8.47672 10.2086 8 10.2086C7.52331 10.2086 7.06094 10.0683 6.66287 9.80292L0.106531 5.43189C0.0701562 5.40764 0.0347187 5.38235 0 5.35635V12.5188C0 13.3399 0.666406 13.9917 1.47291 13.9917H14.5271C15.3482 13.9917 16 13.3253 16 12.5188V5.35632C15.9652 5.38239 15.9297 5.40773 15.8932 5.43201L9.33716 9.80292Z" fill="#C4214A"/>
<path d="M0.626562 4.65168L7.18291 9.02274C7.43109 9.18821 7.71553 9.27093 7.99997 9.27093C8.28444 9.27093 8.56891 9.18818 8.81709 9.02274L15.3734 4.65168C15.7658 4.39027 16 3.95277 16 3.48058C16 2.66868 15.3395 2.00818 14.5276 2.00818H1.47241C0.660531 2.00821 0 2.66871 0 3.48137C0 3.95277 0.23425 4.39027 0.626562 4.65168Z" fill="#C4214A"/>
</g>
<defs>
<clipPath id="clip0_207_573">
<rect width="16" height="16" fill="white"/>
</clipPath>
</defs>
</svg>
