<svg width="20" height="20" viewBox="0 0 20 20" fill="none" xmlns="http://www.w3.org/2000/svg">
<g clip-path="url(#clip0_113_2719)">
<path d="M11.6714 12.2537C11.1739 12.5854 10.5959 12.7607 10 12.7607C9.40414 12.7607 8.82617 12.5854 8.32859 12.2537L0.133164 6.78989C0.0876953 6.75958 0.0433984 6.72797 0 6.69547V15.6485C0 16.675 0.833008 17.4896 1.84113 17.4896H18.1588C19.1853 17.4896 20 16.6566 20 15.6485V6.69543C19.9565 6.72801 19.9121 6.75969 19.8665 6.79004L11.6714 12.2537Z" fill="#FFA425"/>
<path d="M0.783203 5.81463L8.97863 11.2785C9.28887 11.4853 9.64441 11.5887 9.99996 11.5887C10.3555 11.5887 10.7111 11.4853 11.0214 11.2785L19.2168 5.81463C19.7072 5.48787 20 4.941 20 4.35076C20 3.33588 19.1743 2.51025 18.1595 2.51025H1.84051C0.825664 2.51029 0 3.33592 0 4.35174C0 4.941 0.292812 5.48787 0.783203 5.81463Z" fill="#FFA425"/>
</g>
<defs>
<clipPath id="clip0_113_2719">
<rect width="20" height="20" fill="white"/>
</clipPath>
</defs>
</svg>
