<svg width="20" height="20" viewBox="0 0 20 20" fill="none" xmlns="http://www.w3.org/2000/svg">
<path d="M19.9259 9.76326C19.7684 9.53408 15.9834 4.1665 9.99995 4.1665C4.86569 4.1665 0.29062 9.50326 0.0981168 9.73076C-0.0327056 9.88577 -0.0327056 10.1133 0.0981168 10.2691C0.29062 10.4966 4.86569 15.8334 9.99995 15.8334C15.1342 15.8334 19.7092 10.4966 19.9018 10.2691C20.0226 10.1258 20.0334 9.91827 19.9259 9.76326ZM9.99995 15C5.88407 15 1.97065 11.075 0.97649 9.99995C1.96901 8.92411 5.87825 4.99988 9.99995 4.99988C14.8159 4.99988 18.2151 8.91911 19.0451 9.97745C18.0867 11.0183 14.1508 15 9.99995 15Z" fill="#BCBCBC"/>
<path d="M9.99988 6.66663C8.16153 6.66663 6.6665 8.16165 6.6665 10C6.6665 11.8383 8.16153 13.3334 9.99988 13.3334C11.8382 13.3334 13.3332 11.8383 13.3332 10C13.3332 8.16165 11.8382 6.66663 9.99988 6.66663ZM9.99988 12.5001C8.62153 12.5001 7.49984 11.3784 7.49984 10C7.49984 8.6217 8.62153 7.5 9.99988 7.5C11.3782 7.5 12.4999 8.6217 12.4999 10C12.4999 11.3784 11.3782 12.5001 9.99988 12.5001Z" fill="#BCBCBC"/>
</svg>
