<svg width="20" height="20" viewBox="0 0 20 20" fill="none" xmlns="http://www.w3.org/2000/svg">
<g clip-path="url(#clip0_141_182)">
<path d="M12.3567 7.64299C12.1942 7.48049 11.93 7.48049 11.7675 7.64299C11.605 7.80549 11.605 8.07049 11.7675 8.23217C12.2392 8.70385 12.5 9.33135 12.5 9.99967C12.5 11.378 11.3784 12.4997 10 12.4997C9.33172 12.4997 8.70422 12.2397 8.23254 11.7672C8.07004 11.6047 7.80586 11.6047 7.64336 11.7672C7.48086 11.9288 7.48086 12.1938 7.64336 12.3563C8.27168 12.9863 9.10918 13.333 10 13.333C11.8384 13.333 13.3333 11.838 13.3333 9.99971C13.3333 9.10881 12.9867 8.27131 12.3567 7.64299Z" fill="#BCBCBC"/>
<path d="M10.5809 6.72388C10.3917 6.69056 10.1984 6.66638 10.0001 6.66638C8.16175 6.66638 6.66675 8.16138 6.66675 9.9997C6.66675 10.198 6.69093 10.3914 6.72507 10.5805C6.76089 10.7822 6.93675 10.9247 7.13425 10.9247C7.15843 10.9247 7.18257 10.923 7.20757 10.918C7.43339 10.878 7.58507 10.6613 7.54507 10.4355C7.51925 10.2938 7.50007 10.1497 7.50007 9.9997C7.50007 8.62138 8.62175 7.4997 10.0001 7.4997C10.1501 7.4997 10.2943 7.51888 10.4359 7.54388C10.6576 7.58888 10.8784 7.4322 10.9184 7.20638C10.9584 6.98056 10.8068 6.76388 10.5809 6.72388Z" fill="#BCBCBC"/>
<path d="M19.9009 9.73059C19.8067 9.61891 17.5526 6.98809 14.4434 5.37728C14.2417 5.27146 13.9876 5.35146 13.8817 5.55645C13.7759 5.76063 13.8559 6.01227 14.0609 6.11813C16.4559 7.35813 18.3692 9.29313 19.0234 9.99981C18.0301 11.0756 14.1209 14.9998 10.0001 14.9998C8.60179 14.9998 7.19262 14.6623 5.81012 13.9956C5.60512 13.8948 5.3543 13.9823 5.2543 14.1898C5.15348 14.3965 5.24098 14.6456 5.44848 14.7456C6.9443 15.4681 8.47597 15.8331 10.0001 15.8331C15.1343 15.8331 19.7093 10.4964 19.9018 10.2689C20.0334 10.1139 20.0326 9.88641 19.9009 9.73059Z" fill="#BCBCBC"/>
<path d="M12.7342 4.64638C11.7859 4.3272 10.8659 4.16638 10 4.16638C4.86587 4.16638 0.290877 9.50305 0.0983768 9.73055C-0.0233027 9.87387 -0.0333027 10.0822 0.0750565 10.238C0.132556 10.3205 1.51005 12.2764 3.89755 13.8622C3.96837 13.9097 4.04755 13.9322 4.12755 13.9322C4.26173 13.9322 4.39423 13.8672 4.47423 13.7447C4.60173 13.5539 4.54923 13.2947 4.35755 13.168C2.60423 12.0022 1.40423 10.5947 0.955055 10.0222C1.91423 8.98055 5.84923 4.99974 10 4.99974C10.7759 4.99974 11.6067 5.14642 12.4684 5.43556C12.6867 5.51388 12.9234 5.39306 12.9959 5.17388C13.0692 4.95556 12.9525 4.71974 12.7342 4.64638Z" fill="#BCBCBC"/>
<path d="M17.3774 2.62224C17.2149 2.45974 16.9507 2.45974 16.7882 2.62224L2.62163 16.7889C2.45913 16.9514 2.45913 17.2156 2.62163 17.3781C2.70331 17.4589 2.80995 17.4998 2.91663 17.4998C3.02331 17.4998 3.12995 17.4589 3.21081 17.3781L17.3774 3.21142C17.5399 3.04892 17.5399 2.78474 17.3774 2.62224Z" fill="#BCBCBC"/>
</g>
<defs>
<clipPath id="clip0_141_182">
<rect width="20" height="20" fill="white"/>
</clipPath>
</defs>
</svg>
