<svg width="22" height="22" viewBox="0 0 22 22" fill="none" xmlns="http://www.w3.org/2000/svg">
<path d="M5.37305 10.4208H5.89712C6.01879 10.4215 6.13781 10.3853 6.23855 10.3171C6.33929 10.2489 6.41704 10.1518 6.46158 10.0386C6.66053 9.52273 7.3238 8.49078 9.51839 6.9791C10.4026 6.37362 11.154 5.59414 11.7267 4.68833C12.2994 3.78252 12.6813 2.76941 12.8491 1.71097C12.8968 1.38906 13.0584 1.09497 13.3047 0.882189C13.5509 0.669407 13.8653 0.552068 14.1907 0.551514H14.204C14.5581 0.55139 14.8986 0.688035 15.1544 0.932929C15.4102 1.17782 15.5615 1.51204 15.5768 1.86583C15.6421 3.37298 15.4875 5.83107 14.0314 7.3547H20.3583C20.7649 7.3547 21.1548 7.51619 21.4423 7.80366C21.7298 8.09114 21.8914 8.48104 21.8915 8.88762C21.8915 9.29425 21.7299 9.68422 21.4424 9.97175C21.1549 10.2593 20.7649 10.4208 20.3583 10.4208L19.9152 10.4474C19.8991 10.4484 19.884 10.4555 19.873 10.4672C19.8619 10.479 19.8558 10.4945 19.8557 10.5106C19.8557 10.5189 19.8574 10.5272 19.8606 10.5349C19.8637 10.5426 19.8684 10.5496 19.8743 10.5555C19.8802 10.5614 19.8872 10.566 19.8949 10.5692C19.9026 10.5724 19.9109 10.5741 19.9192 10.5741H19.983C20.2181 10.5727 20.4504 10.6261 20.6614 10.7299C20.8724 10.8338 21.0564 10.9853 21.1988 11.1724C21.3412 11.3596 21.4382 11.5773 21.482 11.8084C21.5258 12.0394 21.5153 12.2775 21.4513 12.5038C21.3547 12.7784 21.1868 13.0223 20.9648 13.2104C20.7428 13.3986 20.4747 13.5243 20.188 13.5746C20.188 13.5746 21.2441 13.8933 21.1825 15.278C21.1403 16.2303 19.7266 16.3982 19.7266 16.3982C19.7266 16.3982 21.7881 18.898 18.0516 19.9286C14.315 20.9592 10.5525 20.327 10.5525 20.327L5.52764 19.8011L5.37305 10.4208Z" fill="#FED19A"/>
<path d="M4.17383 10.1023H5.80795V20.0516H4.17383V10.1023Z" fill="white"/>
<path d="M3.89984 8.99573H0.640625C0.347224 8.99573 0.109375 9.23358 0.109375 9.52698V20.7924C0.109375 21.0858 0.347224 21.3236 0.640625 21.3236H3.89984C4.19325 21.3236 4.43109 21.0858 4.43109 20.7924V9.52698C4.43109 9.23358 4.19325 8.99573 3.89984 8.99573Z" fill="#575B6D"/>
<path d="M2.2703 12.159C2.75397 12.159 3.14606 11.7669 3.14606 11.2832C3.14606 10.7996 2.75397 10.4075 2.2703 10.4075C1.78663 10.4075 1.39453 10.7996 1.39453 11.2832C1.39453 11.7669 1.78663 12.159 2.2703 12.159Z" fill="#EEEFEE"/>
</svg>
