<svg width="35" height="35" viewBox="0 0 35 35" fill="none" xmlns="http://www.w3.org/2000/svg">
<circle cx="17.5" cy="17.5" r="17.5" fill="#2B66BC"/>
<g clip-path="url(#clip0_207_553)">
<path d="M25.9959 25V24.9993H25.9999V19.1313C25.9999 16.2607 25.3819 14.0493 22.0259 14.0493C20.4125 14.0493 19.3298 14.9347 18.8878 15.774H18.8412V14.3173H15.6592V24.9993H18.9725V19.71C18.9725 18.3173 19.2365 16.9707 20.9612 16.9707C22.6605 16.9707 22.6859 18.56 22.6859 19.7993V25H25.9959Z" fill="white"/>
<path d="M10.2642 14.3181H13.5815V25.0001H10.2642V14.3181Z" fill="white"/>
<path d="M11.9213 9C10.8607 9 10 9.86067 10 10.9213C10 11.982 10.8607 12.8607 11.9213 12.8607C12.982 12.8607 13.8427 11.982 13.8427 10.9213C13.842 9.86067 12.9813 9 11.9213 9V9Z" fill="white"/>
</g>
<defs>
<clipPath id="clip0_207_553">
<rect width="16" height="16" fill="white" transform="translate(10 9)"/>
</clipPath>
</defs>
</svg>
