<svg width="24" height="24" viewBox="0 0 24 24" fill="none" xmlns="http://www.w3.org/2000/svg">
<path d="M19.5 21.75H15C14.8011 21.75 14.6103 21.671 14.4697 21.5303C14.329 21.3897 14.25 21.1989 14.25 21C14.25 20.8011 14.329 20.6103 14.4697 20.4697C14.6103 20.329 14.8011 20.25 15 20.25H19.5C20.0965 20.2493 20.6684 20.0121 21.0902 19.5902C21.5121 19.1684 21.7493 18.5965 21.75 18V6C21.7493 5.40347 21.5121 4.83157 21.0902 4.40976C20.6684 3.98794 20.0965 3.75067 19.5 3.75H15C14.8011 3.75 14.6103 3.67098 14.4697 3.53033C14.329 3.38968 14.25 3.19891 14.25 3C14.25 2.80109 14.329 2.61032 14.4697 2.46967C14.6103 2.32902 14.8011 2.25 15 2.25H19.5C20.4942 2.25103 21.4475 2.64645 22.1505 3.34949C22.8535 4.05253 23.249 5.00575 23.25 6V18C23.249 18.9942 22.8535 19.9475 22.1505 20.6505C21.4475 21.3535 20.4942 21.749 19.5 21.75Z" fill="#C4214A"/>
<path d="M1.50018 11.2496H13.1897L11.4699 9.52982C11.3333 9.38837 11.2577 9.19892 11.2594 9.00227C11.2611 8.80562 11.34 8.61751 11.4791 8.47846C11.6181 8.3394 11.8062 8.26053 12.0029 8.25882C12.1995 8.25711 12.389 8.3327 12.5304 8.46932L15.5295 11.4684C15.6701 11.6094 15.749 11.8004 15.749 11.9996C15.749 12.1987 15.6701 12.3897 15.5295 12.5307L12.5304 15.5298C12.389 15.6664 12.1995 15.742 12.0029 15.7403C11.8062 15.7386 11.6181 15.6597 11.4791 15.5207C11.34 15.3816 11.2611 15.1935 11.2594 14.9969C11.2577 14.8002 11.3333 14.6108 11.4699 14.4693L13.1897 12.7496H1.50018C1.30126 12.7496 1.1105 12.6705 0.969845 12.5299C0.829192 12.3892 0.750175 12.1985 0.750175 11.9996C0.750175 11.8007 0.829192 11.6099 0.969845 11.4692C1.1105 11.3286 1.30126 11.2496 1.50018 11.2496Z" fill="#C4214A"/>
</svg>
