<svg width="16" height="16" viewBox="0 0 16 16" fill="none" xmlns="http://www.w3.org/2000/svg">
<g clip-path="url(#clip0_207_577)">
<path d="M13.7861 11.136C12.8196 10.3093 11.8386 9.80852 10.8839 10.634L10.3139 11.1328C9.89678 11.495 9.12129 13.1871 6.12297 9.73796C3.12527 6.2932 4.90915 5.75685 5.32687 5.39782L5.90006 4.89831C6.84976 4.07099 6.49136 3.02951 5.8064 1.95743L5.39305 1.30807C4.70498 0.238486 3.95571 -0.463953 3.00351 0.362115L2.48901 0.811676C2.06818 1.11825 0.891824 2.11478 0.606478 4.00793C0.263063 6.27946 1.34638 8.88067 3.82833 11.7348C6.30716 14.5901 8.73417 16.0243 11.0332 15.9993C12.9438 15.9787 14.0977 14.9535 14.4586 14.5807L14.9749 14.1305C15.9246 13.3051 15.3346 12.4647 14.3674 11.6361L13.7861 11.136Z" fill="#C4214A"/>
</g>
<defs>
<clipPath id="clip0_207_577">
<rect width="16" height="16" fill="white"/>
</clipPath>
</defs>
</svg>
