<svg width="16" height="16" viewBox="0 0 16 16" fill="none" xmlns="http://www.w3.org/2000/svg">
<path d="M13.7885 11.136C12.822 10.3093 11.8411 9.80852 10.8864 10.634L10.3163 11.1328C9.89922 11.495 9.12373 13.1871 6.12541 9.73796C3.12771 6.2932 4.91159 5.75685 5.32931 5.39782L5.9025 4.89831C6.8522 4.07099 6.4938 3.02951 5.80884 1.95743L5.3955 1.30807C4.70742 0.238486 3.95815 -0.463953 3.00595 0.362115L2.49146 0.811676C2.07062 1.11825 0.894265 2.11478 0.608919 4.00793C0.265504 6.27946 1.34882 8.88067 3.83077 11.7348C6.3096 14.5901 8.73661 16.0243 11.0356 15.9993C12.9462 15.9787 14.1001 14.9535 14.461 14.5807L14.9774 14.1305C15.9271 13.3051 15.337 12.4647 14.3699 11.6361L13.7885 11.136Z" fill="#FFA425"/>
</svg>
