<svg width="20" height="20" viewBox="0 0 20 20" fill="none" xmlns="http://www.w3.org/2000/svg">
<path d="M17.2318 13.92C16.0236 12.8866 14.7974 12.2607 13.6041 13.2925L12.8915 13.9161C12.3701 14.3688 11.4008 16.4839 7.65285 12.1725C3.90573 7.86653 6.13558 7.19609 6.65773 6.74731L7.37422 6.12292C8.56134 5.08877 8.11334 3.78692 7.25715 2.44682L6.74046 1.63511C5.88037 0.298138 4.94378 -0.579911 3.75354 0.452674L3.11041 1.01463C2.58436 1.39785 1.11393 2.6435 0.757243 5.00994C0.327974 7.84936 1.68212 11.1009 4.78456 14.6685C7.8831 18.2377 10.9169 20.0304 13.7906 19.9992C16.1789 19.9735 17.6212 18.6919 18.0724 18.2259L18.7178 17.6632C19.905 16.6314 19.1674 15.5809 17.9584 14.5452L17.2318 13.92Z" fill="#FFA425"/>
</svg>
