<svg width="24" height="24" viewBox="0 0 24 24" fill="none" xmlns="http://www.w3.org/2000/svg">
<path d="M12 23.5C18.3513 23.5 23.5 18.3513 23.5 12C23.5 5.64873 18.3513 0.5 12 0.5C5.64873 0.5 0.5 5.64873 0.5 12C0.5 18.3513 5.64873 23.5 12 23.5Z" fill="#FFD364"/>
<path d="M12 19.5C8.416 19.5 5.5 17.0325 5.5 14H6.5C6.5 16.481 8.9675 18.5 12 18.5C15.0325 18.5 17.5 16.481 17.5 14H18.5C18.5 17.0325 15.584 19.5 12 19.5Z" fill="#273941"/>
<path d="M10 10.5H9.00001C9.00001 9.397 8.32701 8.5 7.5 8.5C6.673 8.5 6 9.397 6 10.5H5C5 8.8455 6.1215 7.5 7.5 7.5C8.87851 7.5 10 8.8455 10 10.5Z" fill="#273941"/>
<path d="M19 10.5H18C18 9.397 17.327 8.5 16.5 8.5C15.673 8.5 15 9.397 15 10.5H14C14 8.8455 15.1215 7.5 16.5 7.5C17.8785 7.5 19 8.8455 19 10.5Z" fill="#273941"/>
<path d="M11.9992 1.99997C18.0742 1.99997 22.9992 6.25347 22.9992 11.5H23.4867C23.3489 8.54599 22.0784 5.75865 19.9392 3.71692C17.7999 1.67519 14.9564 0.536011 11.9992 0.536011C9.04204 0.536011 6.1985 1.67519 4.05927 3.71692C1.92005 5.75865 0.649561 8.54599 0.511719 11.5H0.999219C0.999219 6.25347 5.92422 1.99997 11.9992 1.99997Z" fill="#FFEB95"/>
<path d="M23 11.5C23 16.7465 18.075 21 12 21C5.925 21 1 16.7465 1 11.5H0.5125C0.5055 11.666 0.5 11.8325 0.5 12C0.5 15.05 1.7116 17.9751 3.86827 20.1317C6.02494 22.2884 8.95001 23.5 12 23.5C15.05 23.5 17.9751 22.2884 20.1317 20.1317C22.2884 17.9751 23.5 15.05 23.5 12C23.5 11.8325 23.4945 11.666 23.4875 11.5H23Z" fill="#FFB839"/>
<path d="M18.9062 4.9129C19.0673 4.75181 19.0161 4.4395 18.792 4.21534C18.5678 3.99118 18.2555 3.94005 18.0944 4.10114C17.9333 4.26223 17.9845 4.57454 18.2086 4.7987C18.4328 5.02286 18.7451 5.07399 18.9062 4.9129Z" fill="#F6FAFD"/>
<path d="M15.5773 2.45847C15.6579 2.37783 15.6325 2.22159 15.5204 2.10951C15.4083 1.99743 15.2521 1.97195 15.1714 2.05259C15.0908 2.13323 15.1163 2.28947 15.2283 2.40155C15.3404 2.51363 15.4967 2.53911 15.5773 2.45847Z" fill="#F6FAFD"/>
<path d="M17.813 4.31869C18.1352 3.99651 18.0328 3.37173 17.5843 2.92322C17.1358 2.4747 16.511 2.37229 16.1888 2.69447C15.8666 3.01665 15.9691 3.64143 16.4176 4.08994C16.8661 4.53846 17.4909 4.64088 17.813 4.31869Z" fill="#F6FAFD"/>
<path d="M12 24C9.62663 24 7.30655 23.2962 5.33316 21.9776C3.35977 20.6591 1.8217 18.7849 0.913451 16.5922C0.00519943 14.3995 -0.232441 11.9867 0.230582 9.65892C0.693605 7.33115 1.83649 5.19295 3.51472 3.51472C5.19295 1.83649 7.33115 0.693605 9.65892 0.230582C11.9867 -0.232441 14.3995 0.00519943 16.5922 0.913451C18.7849 1.8217 20.6591 3.35977 21.9776 5.33316C23.2962 7.30655 24 9.62663 24 12C23.9963 15.1815 22.7308 18.2316 20.4812 20.4812C18.2316 22.7308 15.1815 23.9963 12 24ZM12 1.00001C9.82441 1.00001 7.69767 1.64514 5.88873 2.85384C4.07979 4.06254 2.66989 5.7805 1.83733 7.79049C1.00477 9.80047 0.78693 12.0122 1.21137 14.146C1.6358 16.2798 2.68345 18.2398 4.22183 19.7782C5.76021 21.3166 7.72022 22.3642 9.85401 22.7886C11.9878 23.2131 14.1995 22.9952 16.2095 22.1627C18.2195 21.3301 19.9375 19.9202 21.1462 18.1113C22.3549 16.3023 23 14.1756 23 12C22.9967 9.08364 21.8367 6.28767 19.7745 4.22548C17.7123 2.1633 14.9164 1.00331 12 1.00001Z" fill="#141E21"/>
<path d="M12 19.5C8.416 19.5 5.5 17.0325 5.5 14H6.5C6.5 16.481 8.9675 18.5 12 18.5C15.0325 18.5 17.5 16.481 17.5 14H18.5C18.5 17.0325 15.584 19.5 12 19.5Z" fill="#141E21"/>
<path d="M10 10.5H9.00001C9.00001 9.397 8.32701 8.5 7.5 8.5C6.673 8.5 6 9.397 6 10.5H5C5 8.8455 6.1215 7.5 7.5 7.5C8.87851 7.5 10 8.8455 10 10.5Z" fill="#141E21"/>
<path d="M19 10.5H18C18 9.397 17.327 8.5 16.5 8.5C15.673 8.5 15 9.397 15 10.5H14C14 8.8455 15.1215 7.5 16.5 7.5C17.8785 7.5 19 8.8455 19 10.5Z" fill="#141E21"/>
</svg>
