<svg width="20" height="20" viewBox="0 0 20 20" fill="none" xmlns="http://www.w3.org/2000/svg">
<path d="M19.1301 7.41256C19.0724 7.24274 18.9663 7.09353 18.8248 6.98335C18.6833 6.87316 18.5127 6.80681 18.3339 6.79251L13.1048 6.377L10.842 1.36798C10.7699 1.20665 10.6527 1.06963 10.5045 0.973442C10.3562 0.877257 10.1833 0.826025 10.0066 0.825928C9.82995 0.825831 9.65701 0.876874 9.50868 0.972896C9.36036 1.06892 9.24299 1.20582 9.17075 1.36707L6.90793 6.377L1.67878 6.79251C1.50309 6.80642 1.33513 6.87066 1.19499 6.97754C1.05485 7.08442 0.948473 7.2294 0.888578 7.39516C0.828682 7.56091 0.817808 7.74041 0.857256 7.91218C0.896703 8.08395 0.984802 8.24072 1.11101 8.36373L4.97532 12.1308L3.60864 18.0488C3.56714 18.2279 3.58044 18.4154 3.64682 18.5869C3.71319 18.7584 3.82957 18.9059 3.98086 19.0105C4.13214 19.115 4.31135 19.1716 4.49523 19.173C4.6791 19.1744 4.85915 19.1205 5.01201 19.0183L10.0064 15.6888L15.0007 19.0183C15.1569 19.1221 15.3412 19.1755 15.5287 19.1713C15.7162 19.1672 15.8979 19.1058 16.0494 18.9953C16.201 18.8848 16.3151 18.7306 16.3763 18.5533C16.4376 18.3761 16.4431 18.1843 16.3921 18.0039L14.7145 12.1336L18.8751 8.38941C19.1475 8.14359 19.2475 7.76019 19.1301 7.41256Z" fill="#FFA425"/>
</svg>
