<svg width="13" height="10" viewBox="0 0 13 10" fill="none" xmlns="http://www.w3.org/2000/svg">
<g clip-path="url(#clip0_243_7282)">
<path d="M10.2519 1.12101L10.2519 1.12103L4.61513 6.75784L2.66612 4.80884C2.66611 4.80883 2.66611 4.80883 2.6661 4.80882C2.27554 4.41824 1.64242 4.41836 1.25192 4.80878L1.2519 4.8088C0.861335 5.19933 0.86136 5.83249 1.25189 6.22302L1.25189 6.22302L3.90797 8.87906C3.90798 8.87908 3.908 8.8791 3.90802 8.87911C4.29861 9.26976 4.93199 9.26935 5.32224 8.87911L11.6661 2.53526C11.6661 2.53525 11.6661 2.53525 11.6661 2.53524C12.0567 2.14469 12.0566 1.51154 11.6661 1.12104C11.2756 0.730465 10.6424 0.730517 10.2519 1.12101Z" fill="white" stroke="white"/>
</g>
<defs>
<clipPath id="clip0_243_7282">
<rect width="12.5" height="10" fill="white"/>
</clipPath>
</defs>
</svg>
