<svg width="120" height="40" viewBox="0 0 120 40" fill="none" xmlns="http://www.w3.org/2000/svg">
<rect width="120" height="40" rx="8" fill="#F0F0F0"/>
<path d="M23.3636 28.0039H26.5453V20.2769L24.4619 16.6388L22 16.8679V26.6403C22 27.3937 22.6102 28.0039 23.3636 28.0039Z" fill="#0085F7"/>
<path d="M37.4551 28.0039H40.6368C41.3902 28.0039 42.0004 27.3937 42.0004 26.6403V16.8679L39.5421 16.6388L37.4551 20.2769V28.0039H37.4551Z" fill="#00A94B"/>
<path d="M37.4529 14.3673L35.584 17.9337L37.4529 20.2762L41.9983 16.8672V15.0491C41.9983 13.3639 40.0745 12.4014 38.7256 13.4128L37.4529 14.3673Z" fill="#FFA425"/>
<path fill-rule="evenodd" clip-rule="evenodd" d="M26.5426 20.2761L24.7617 16.5141L26.5426 14.3672L31.997 18.4579L37.4513 14.3672V20.2761L31.997 24.3669L26.5426 20.2761Z" fill="#FF4131"/>
<path d="M22 15.0491V16.8672L26.5453 20.2762V14.3673L25.2726 13.4128C23.9238 12.4014 22 13.3639 22 15.0491V15.0491Z" fill="#E51C19"/>
<path d="M61.8253 19.0696C61.7424 18.8011 61.6281 18.5608 61.4822 18.3487C61.3397 18.1333 61.1674 17.9493 60.9652 17.7969C60.7663 17.6444 60.5376 17.5301 60.2791 17.4538C60.0206 17.3743 59.7389 17.3345 59.4339 17.3345C58.8871 17.3345 58.3999 17.4721 57.9723 17.7472C57.5447 18.0223 57.2083 18.4266 56.9631 18.9602C56.7211 19.4905 56.6001 20.1368 56.6001 20.8991C56.6001 21.6681 56.7211 22.3194 56.9631 22.853C57.205 23.3866 57.5414 23.7926 57.9723 24.071C58.4032 24.3461 58.9036 24.4837 59.4737 24.4837C59.9908 24.4837 60.4382 24.3842 60.8161 24.1854C61.1972 23.9865 61.4905 23.7048 61.696 23.3402C61.9015 22.9723 62.0043 22.5414 62.0043 22.0476L62.4219 22.1122H59.6577V20.6705H63.7891V21.8935C63.7891 22.7652 63.6035 23.5192 63.2322 24.1555C62.861 24.7919 62.3506 25.2824 61.701 25.6271C61.0514 25.9685 60.3056 26.1392 59.4638 26.1392C58.5258 26.1392 57.7022 25.9287 56.9929 25.5078C56.2869 25.0836 55.7351 24.482 55.3374 23.7031C54.9429 22.9209 54.7457 21.9929 54.7457 20.919C54.7457 20.0971 54.8617 19.3629 55.0938 18.7166C55.3291 18.0703 55.6572 17.5218 56.0781 17.071C56.4991 16.617 56.9929 16.2723 57.5597 16.0369C58.1264 15.7983 58.7429 15.679 59.4091 15.679C59.9725 15.679 60.4979 15.7618 60.9851 15.9276C61.4723 16.09 61.9048 16.322 62.2827 16.6236C62.6638 16.9252 62.977 17.2831 63.2223 17.6974C63.4676 18.1117 63.6283 18.5691 63.7045 19.0696H61.8253ZM65.4931 26V18.3636H67.2132V19.6612H67.3027C67.4618 19.2237 67.7253 18.8823 68.0932 18.6371C68.4611 18.3885 68.9003 18.2642 69.4107 18.2642C69.9277 18.2642 70.3636 18.3902 70.7182 18.642C71.0762 18.8906 71.3281 19.2304 71.4739 19.6612H71.5534C71.7225 19.237 72.0075 18.8989 72.4086 18.647C72.8129 18.3918 73.2918 18.2642 73.8453 18.2642C74.548 18.2642 75.1214 18.4863 75.5655 18.9304C76.0096 19.3745 76.2317 20.0225 76.2317 20.8743V26H74.427V21.1527C74.427 20.6787 74.3011 20.3324 74.0492 20.1136C73.7973 19.8916 73.4891 19.7805 73.1245 19.7805C72.6903 19.7805 72.3506 19.9164 72.1053 20.1882C71.8633 20.4567 71.7424 20.8063 71.7424 21.2372V26H69.9775V21.0781C69.9775 20.6837 69.8581 20.3688 69.6195 20.1335C69.3842 19.8982 69.0759 19.7805 68.6948 19.7805C68.4363 19.7805 68.2009 19.8468 67.9888 19.9794C67.7767 20.1087 67.6077 20.2926 67.4817 20.5312C67.3558 20.7666 67.2928 21.0417 67.2928 21.3565V26H65.4931ZM80.255 26.1541C79.7711 26.1541 79.3352 26.0679 78.9474 25.8956C78.563 25.7199 78.258 25.4614 78.0327 25.12C77.8106 24.7786 77.6996 24.3577 77.6996 23.8572C77.6996 23.4264 77.7791 23.0701 77.9382 22.7884C78.0973 22.5066 78.3144 22.2812 78.5895 22.1122C78.8646 21.9432 79.1745 21.8156 79.5192 21.7294C79.8672 21.6399 80.2268 21.5753 80.598 21.5355C81.0455 21.4891 81.4084 21.4477 81.6868 21.4112C81.9652 21.3714 82.1674 21.3118 82.2933 21.2322C82.4226 21.1494 82.4872 21.0218 82.4872 20.8494V20.8196C82.4872 20.4451 82.3762 20.1551 82.1541 19.9496C81.9321 19.7441 81.6122 19.6413 81.1946 19.6413C80.7538 19.6413 80.4041 19.7375 80.1456 19.9297C79.8904 20.1219 79.718 20.349 79.6286 20.6108L77.9482 20.3722C78.0807 19.9081 78.2995 19.5204 78.6044 19.2088C78.9093 18.8939 79.2822 18.6586 79.723 18.5028C80.1638 18.3438 80.651 18.2642 81.1847 18.2642C81.5526 18.2642 81.9188 18.3073 82.2834 18.3935C82.648 18.4796 82.9811 18.6222 83.2827 18.821C83.5843 19.0166 83.8262 19.2834 84.0085 19.6214C84.1941 19.9595 84.2869 20.3821 84.2869 20.8892V26H82.5568V24.951H82.4972C82.3878 25.1631 82.2337 25.362 82.0348 25.5476C81.8393 25.7299 81.5923 25.8774 81.294 25.9901C80.9991 26.0994 80.6527 26.1541 80.255 26.1541ZM80.7223 24.8317C81.0836 24.8317 81.3968 24.7604 81.6619 24.6179C81.9271 24.4721 82.1309 24.2798 82.2734 24.0412C82.4193 23.8026 82.4922 23.5424 82.4922 23.2607V22.3608C82.4358 22.4072 82.3397 22.4503 82.2038 22.4901C82.0713 22.5298 81.9221 22.5646 81.7564 22.5945C81.5907 22.6243 81.4266 22.6508 81.2642 22.674C81.1018 22.6972 80.9609 22.7171 80.8416 22.7337C80.5732 22.7701 80.3329 22.8298 80.1207 22.9126C79.9086 22.9955 79.7412 23.1115 79.6186 23.2607C79.496 23.4065 79.4347 23.5954 79.4347 23.8274C79.4347 24.1589 79.5556 24.4091 79.7976 24.5781C80.0395 24.7472 80.3478 24.8317 80.7223 24.8317ZM86.0966 26V18.3636H87.8963V26H86.0966ZM87.0014 17.2798C86.7164 17.2798 86.4711 17.1854 86.2656 16.9964C86.0601 16.8042 85.9574 16.5739 85.9574 16.3054C85.9574 16.0336 86.0601 15.8033 86.2656 15.6143C86.4711 15.4221 86.7164 15.326 87.0014 15.326C87.2898 15.326 87.535 15.4221 87.7372 15.6143C87.9427 15.8033 88.0455 16.0336 88.0455 16.3054C88.0455 16.5739 87.9427 16.8042 87.7372 16.9964C87.535 17.1854 87.2898 17.2798 87.0014 17.2798ZM91.5467 15.8182V26H89.747V15.8182H91.5467Z" fill="#101010"/>
</svg>
