<svg width="120" height="40" viewBox="0 0 120 40" fill="none" xmlns="http://www.w3.org/2000/svg">
<rect width="120" height="40" rx="8" fill="#2B66BC"/>
<path d="M43.0043 26V15.8182H44.8487V24.4538H49.3331V26H43.0043ZM50.8544 26V18.3636H52.6541V26H50.8544ZM51.7592 17.2798C51.4742 17.2798 51.2289 17.1854 51.0234 16.9964C50.8179 16.8042 50.7152 16.5739 50.7152 16.3054C50.7152 16.0336 50.8179 15.8033 51.0234 15.6143C51.2289 15.4221 51.4742 15.326 51.7592 15.326C52.0476 15.326 52.2929 15.4221 52.495 15.6143C52.7005 15.8033 52.8033 16.0336 52.8033 16.3054C52.8033 16.5739 52.7005 16.8042 52.495 16.9964C52.2929 17.1854 52.0476 17.2798 51.7592 17.2798ZM56.3045 21.5256V26H54.5048V18.3636H56.225V19.6612H56.3145C56.4901 19.2337 56.7702 18.8939 57.1547 18.642C57.5424 18.3902 58.0214 18.2642 58.5914 18.2642C59.1184 18.2642 59.5775 18.3769 59.9686 18.6023C60.363 18.8277 60.6679 19.1541 60.8833 19.5817C61.1021 20.0092 61.2098 20.5279 61.2065 21.1378V26H59.4068V21.4162C59.4068 20.9058 59.2742 20.5064 59.0091 20.218C58.7472 19.9297 58.3843 19.7855 57.9203 19.7855C57.6054 19.7855 57.3253 19.8551 57.0801 19.9943C56.8381 20.1302 56.6475 20.3274 56.5083 20.5859C56.3725 20.8445 56.3045 21.1577 56.3045 21.5256ZM64.6767 23.6037L64.6717 21.4311H64.96L67.7044 18.3636H69.8074L66.4316 22.1222H66.0588L64.6767 23.6037ZM63.036 26V15.8182H64.8358V26H63.036ZM67.8287 26L65.3429 22.5249L66.5559 21.2571L69.9814 26H67.8287ZM74.073 26.1491C73.3074 26.1491 72.6461 25.9901 72.0893 25.6719C71.5358 25.3504 71.1099 24.8963 70.8116 24.3097C70.5133 23.7197 70.3642 23.0253 70.3642 22.2266C70.3642 21.4411 70.5133 20.7517 70.8116 20.1584C71.1132 19.5618 71.5342 19.0978 72.0744 18.7663C72.6146 18.4316 73.2493 18.2642 73.9785 18.2642C74.4492 18.2642 74.8933 18.3404 75.3109 18.4929C75.7318 18.642 76.103 18.8741 76.4245 19.1889C76.7493 19.5038 77.0046 19.9048 77.1902 20.392C77.3758 20.8759 77.4686 21.4527 77.4686 22.1222V22.674H71.2093V21.4609H75.7434C75.7401 21.1162 75.6655 20.8097 75.5197 20.5412C75.3739 20.2694 75.17 20.0556 74.9082 19.8999C74.6497 19.7441 74.3481 19.6662 74.0034 19.6662C73.6355 19.6662 73.3123 19.7557 73.0339 19.9347C72.7555 20.1103 72.5384 20.3423 72.3826 20.6307C72.2302 20.9157 72.1523 21.2289 72.149 21.5703V22.6293C72.149 23.0734 72.2302 23.4545 72.3926 23.7727C72.555 24.0876 72.782 24.3295 73.0737 24.4986C73.3654 24.6643 73.7067 24.7472 74.0978 24.7472C74.3597 24.7472 74.5967 24.7107 74.8088 24.6378C75.0209 24.5616 75.2048 24.4505 75.3606 24.3047C75.5164 24.1589 75.6341 23.9782 75.7136 23.7628L77.394 23.9517C77.2879 24.3958 77.0858 24.7836 76.7875 25.1151C76.4925 25.4432 76.1146 25.6984 75.6539 25.8807C75.1932 26.0597 74.6663 26.1491 74.073 26.1491ZM81.8249 26.1342C81.225 26.1342 80.6881 25.9801 80.2141 25.6719C79.7402 25.3636 79.3656 24.9162 79.0906 24.3295C78.8155 23.7429 78.6779 23.0303 78.6779 22.1918C78.6779 21.3433 78.8171 20.6274 79.0955 20.044C79.3772 19.4574 79.7567 19.0149 80.234 18.7166C80.7113 18.415 81.2433 18.2642 81.8299 18.2642C82.2773 18.2642 82.6452 18.3404 82.9336 18.4929C83.2219 18.642 83.4506 18.8227 83.6197 19.0348C83.7887 19.2436 83.9196 19.4408 84.0124 19.6264H84.087V15.8182H85.8917V26H84.1218V24.7969H84.0124C83.9196 24.9825 83.7854 25.1797 83.6097 25.3885C83.4341 25.594 83.2021 25.7696 82.9137 25.9155C82.6254 26.0613 82.2624 26.1342 81.8249 26.1342ZM82.3271 24.6577C82.7082 24.6577 83.033 24.5549 83.3015 24.3494C83.57 24.1406 83.7738 23.8506 83.913 23.4794C84.0522 23.1082 84.1218 22.6757 84.1218 22.1818C84.1218 21.688 84.0522 21.2588 83.913 20.8942C83.7771 20.5296 83.5749 20.2462 83.3065 20.044C83.0413 19.8419 82.7148 19.7408 82.3271 19.7408C81.926 19.7408 81.5913 19.8452 81.3228 20.054C81.0543 20.2628 80.8522 20.5511 80.7163 20.919C80.5804 21.2869 80.5124 21.7079 80.5124 22.1818C80.5124 22.6591 80.5804 23.085 80.7163 23.4595C80.8555 23.8307 81.0593 24.1241 81.3278 24.3395C81.5996 24.5516 81.9326 24.6577 82.3271 24.6577ZM89.7335 15.8182V26H87.889V15.8182H89.7335ZM93.451 21.5256V26H91.6513V18.3636H93.3714V19.6612H93.4609C93.6366 19.2337 93.9167 18.8939 94.3011 18.642C94.6889 18.3902 95.1679 18.2642 95.7379 18.2642C96.2649 18.2642 96.724 18.3769 97.1151 18.6023C97.5095 18.8277 97.8144 19.1541 98.0298 19.5817C98.2486 20.0092 98.3563 20.5279 98.353 21.1378V26H96.5533V21.4162C96.5533 20.9058 96.4207 20.5064 96.1555 20.218C95.8937 19.9297 95.5308 19.7855 95.0668 19.7855C94.7519 19.7855 94.4718 19.8551 94.2266 19.9943C93.9846 20.1302 93.794 20.3274 93.6548 20.5859C93.5189 20.8445 93.451 21.1577 93.451 21.5256Z" fill="white"/>
<g clip-path="url(#clip0_108_2719)">
<path d="M31.9963 26V25.9994H32V20.4981C32 17.8069 31.4207 15.7338 28.2744 15.7338C26.7619 15.7338 25.7469 16.5638 25.3325 17.3506H25.2888V15.985H22.3057V25.9994H25.4119V21.0406C25.4119 19.735 25.6594 18.4725 27.2763 18.4725C28.8694 18.4725 28.8932 19.9625 28.8932 21.1244V26H31.9963Z" fill="white"/>
<path d="M17.2476 15.9856H20.3576V26H17.2476V15.9856Z" fill="white"/>
<path d="M18.8012 11C17.8069 11 17 11.8069 17 12.8013C17 13.7956 17.8069 14.6194 18.8012 14.6194C19.7956 14.6194 20.6025 13.7956 20.6025 12.8013C20.6019 11.8069 19.795 11 18.8012 11V11Z" fill="white"/>
</g>
<defs>
<clipPath id="clip0_108_2719">
<rect width="15" height="15" fill="white" transform="translate(17 11)"/>
</clipPath>
</defs>
</svg>
